<svg xmlns="http://www.w3.org/2000/svg" xmlns:xlink="http://www.w3.org/1999/xlink" width="500" zoomAndPan="magnify" viewBox="0 0 375 374.999991" height="500" preserveAspectRatio="xMidYMid meet" version="1.0"><defs><g/><clipPath id="86d14a52ef"><path d="M 109 47 L 277 47 L 277 247.546875 L 109 247.546875 Z M 109 47 " clip-rule="nonzero"/></clipPath><clipPath id="ea4ea98c86"><path d="M 90 116 L 221 116 L 221 186 L 90 186 Z M 90 116 " clip-rule="nonzero"/></clipPath><clipPath id="d96fb3460d"><path d="M 89.710938 124.441406 L 214.746094 98.148438 L 239.71875 216.886719 L 114.679688 243.183594 Z M 89.710938 124.441406 " clip-rule="nonzero"/></clipPath><clipPath id="46d107a0f7"><path d="M 89.710938 124.441406 L 214.746094 98.148438 L 239.71875 216.886719 L 114.679688 243.183594 Z M 89.710938 124.441406 " clip-rule="nonzero"/></clipPath><clipPath id="392078fc1e"><path d="M 126 140 L 202 140 L 202 228 L 126 228 Z M 126 140 " clip-rule="nonzero"/></clipPath><clipPath id="fd87dbc8b6"><path d="M 89.710938 124.441406 L 214.746094 98.148438 L 239.71875 216.886719 L 114.679688 243.183594 Z M 89.710938 124.441406 " clip-rule="nonzero"/></clipPath><clipPath id="18e50f10ba"><path d="M 89.710938 124.441406 L 214.746094 98.148438 L 239.71875 216.886719 L 114.679688 243.183594 Z M 89.710938 124.441406 " clip-rule="nonzero"/></clipPath><clipPath id="cd7f328a11"><path d="M 101.226562 205 L 273.726562 205 L 273.726562 267.714844 L 101.226562 267.714844 Z M 101.226562 205 " clip-rule="nonzero"/></clipPath></defs><g clip-path="url(#86d14a52ef)"><path fill="#68a52c" d="M 274.980469 100.53125 C 272.925781 94.875 265.730469 94.363281 265.730469 94.363281 C 226.167969 87.683594 207.429688 54.800781 200.75 50.6875 C 194.070312 46.578125 192.910156 47.476562 192.910156 47.476562 C 192.910156 47.476562 189.957031 46.191406 184.5625 50.6875 C 178.539062 55.710938 158.34375 87.683594 118.777344 94.363281 C 118.777344 94.363281 111.585938 94.875 109.527344 100.53125 C 107.472656 106.179688 112.097656 216.660156 195.335938 247.492188 C 285.261719 207.921875 277.039062 106.179688 274.980469 100.53125 Z M 274.980469 100.53125 " fill-opacity="1" fill-rule="nonzero"/></g><path fill="#68a52c" d="M 261.351562 108.289062 C 259.636719 103.574219 253.632812 103.144531 253.632812 103.144531 C 220.621094 97.570312 204.980469 70.128906 199.410156 66.699219 C 193.835938 63.269531 192.871094 64.019531 192.871094 64.019531 C 192.871094 64.019531 190.402344 62.949219 185.902344 66.699219 C 180.875 70.890625 164.023438 97.570312 131.007812 103.144531 C 131.007812 103.144531 125.007812 103.574219 123.289062 108.289062 C 121.578125 113.007812 125.433594 205.191406 194.894531 230.914062 C 269.925781 197.902344 263.066406 113.007812 261.351562 108.289062 Z M 261.351562 108.289062 " fill-opacity="1" fill-rule="nonzero"/><path fill="#471b00" d="M 253.632812 103.144531 C 220.621094 97.570312 204.980469 70.128906 199.410156 66.699219 C 199.410156 66.699219 205.871094 98.988281 249.804688 109.011719 C 249.804688 109.011719 260.070312 189.28125 188.175781 228.125 C 190.347656 229.125 192.582031 230.0625 194.894531 230.914062 C 269.925781 197.902344 263.066406 113.007812 261.351562 108.289062 C 259.636719 103.574219 253.632812 103.144531 253.632812 103.144531 Z M 253.632812 103.144531 " fill-opacity="1" fill-rule="nonzero"/><g clip-path="url(#ea4ea98c86)"><g clip-path="url(#d96fb3460d)"><g clip-path="url(#46d107a0f7)"><path fill="#bfe063" d="M 177.710938 183.8125 C 177.710938 183.8125 154.015625 189.59375 127.652344 175.105469 C 101.292969 160.613281 90.210938 125 90.011719 125.308594 C 89.808594 125.617188 122.414062 111.625 152.097656 129.050781 C 181.78125 146.480469 177.710938 183.8125 177.710938 183.8125 Z M 218.941406 149.921875 C 223.082031 134.203125 218.667969 116.160156 218.667969 116.160156 C 218.667969 116.160156 195.667969 120.820312 186.246094 139.246094 C 174.042969 163 185.90625 185.679688 185.90625 185.679688 C 185.90625 185.679688 212.949219 172.636719 218.941406 149.921875 Z M 218.941406 149.921875 " fill-opacity="1" fill-rule="nonzero"/></g></g></g><g clip-path="url(#392078fc1e)"><g clip-path="url(#fd87dbc8b6)"><g clip-path="url(#18e50f10ba)"><path fill="#471b00" d="M 200.535156 141.648438 C 199.550781 140.96875 198.191406 141.253906 197.511719 142.238281 C 186.84375 158.3125 183.53125 175.453125 183.679688 192.175781 C 176.292969 174.757812 160.515625 149.265625 129.492188 140.632812 C 128.3125 140.304688 127.128906 140.996094 126.835938 142.121094 C 126.496094 143.257812 127.199219 144.484375 128.324219 144.777344 C 171.640625 156.855469 183.6875 204.011719 184.976562 209.722656 C 185.6875 215.203125 186.675781 220.535156 187.722656 225.722656 C 187.972656 226.910156 189.101562 227.648438 190.289062 227.398438 C 191.4375 227.160156 192.214844 226.019531 191.964844 224.832031 C 190.992188 219.984375 190.082031 215.03125 189.367188 209.953125 C 189.375 209.773438 189.382812 209.59375 189.347656 209.425781 L 189.25 208.957031 C 186.496094 187.863281 187.4375 165.148438 201.109375 144.585938 C 201.796875 143.644531 201.519531 142.328125 200.535156 141.648438 Z M 200.535156 141.648438 " fill-opacity="1" fill-rule="nonzero"/></g></g></g><g fill="#471b00" fill-opacity="1"><g transform="translate(69.025338, 317.608159)"><g><path d="M 17.8125 0.171875 C 17.488281 0.0546875 16.785156 0 15.703125 0 L 4.734375 0 C 3.992188 0 3.398438 -0.113281 2.953125 -0.34375 C 2.515625 -0.582031 2.296875 -1.015625 2.296875 -1.640625 C 2.296875 -2.097656 2.40625 -2.460938 2.625 -2.734375 C 3.164062 -2.585938 3.679688 -2.515625 4.171875 -2.515625 C 4.671875 -2.515625 5.0625 -2.566406 5.34375 -2.671875 C 5.632812 -2.785156 5.890625 -2.976562 6.109375 -3.25 C 6.535156 -3.8125 6.75 -4.753906 6.75 -6.078125 L 6.75 -27.5 C 6.75 -28.820312 5.960938 -29.648438 4.390625 -29.984375 C 3.410156 -30.179688 2.769531 -30.40625 2.46875 -30.65625 C 2.175781 -30.914062 2.03125 -31.195312 2.03125 -31.5 C 2.03125 -32.15625 2.144531 -32.59375 2.375 -32.8125 C 2.625 -32.75 2.859375 -32.71875 3.078125 -32.71875 L 8.359375 -32.71875 L 15.96875 -32.921875 C 22.625 -32.921875 26.832031 -31.109375 28.59375 -27.484375 C 29.238281 -26.171875 29.5625 -24.859375 29.5625 -23.546875 C 29.5625 -22.242188 29.46875 -21.128906 29.28125 -20.203125 C 29.09375 -19.285156 28.773438 -18.390625 28.328125 -17.515625 C 27.878906 -16.640625 27.285156 -15.8125 26.546875 -15.03125 C 25.804688 -14.257812 24.878906 -13.582031 23.765625 -13 C 21.367188 -11.75 18.296875 -11.125 14.546875 -11.125 L 13.75 -11.125 C 13.34375 -11.125 13.140625 -11.378906 13.140625 -11.890625 C 13.140625 -13.015625 13.445312 -13.644531 14.0625 -13.78125 C 19.414062 -13.664062 22.648438 -15.257812 23.765625 -18.5625 C 24.109375 -19.601562 24.28125 -20.710938 24.28125 -21.890625 C 24.28125 -23.078125 24.148438 -24.160156 23.890625 -25.140625 C 23.640625 -26.128906 23.179688 -27.007812 22.515625 -27.78125 C 21.035156 -29.457031 18.585938 -30.296875 15.171875 -30.296875 C 13.796875 -30.296875 12.878906 -30 12.421875 -29.40625 C 11.992188 -28.875 11.78125 -27.804688 11.78125 -26.203125 L 11.78125 -4.890625 C 11.851562 -3.773438 12.734375 -3.097656 14.421875 -2.859375 C 15.941406 -2.648438 16.882812 -2.453125 17.25 -2.265625 C 17.625 -2.078125 17.867188 -1.894531 17.984375 -1.71875 C 18.097656 -1.539062 18.15625 -1.320312 18.15625 -1.0625 C 18.15625 -0.519531 18.039062 -0.109375 17.8125 0.171875 Z M 17.8125 0.171875 "/></g></g></g><g fill="#471b00" fill-opacity="1"><g transform="translate(99.626551, 317.608159)"><g><path d="M 6.03125 0 C 3.851562 0 2.765625 -0.5 2.765625 -1.5 C 2.765625 -2.019531 2.875 -2.414062 3.09375 -2.6875 C 3.425781 -2.570312 3.742188 -2.515625 4.046875 -2.515625 C 5.285156 -2.515625 5.925781 -3.265625 5.96875 -4.765625 L 5.96875 -31.46875 C 5.96875 -32.46875 5.867188 -33.101562 5.671875 -33.375 C 5.347656 -33.832031 4.820312 -34.0625 4.09375 -34.0625 C 3.757812 -34.0625 3.441406 -34.023438 3.140625 -33.953125 C 2.835938 -33.890625 2.625 -33.890625 2.5 -33.953125 C 2.382812 -34.023438 2.289062 -34.117188 2.21875 -34.234375 C 1.925781 -34.703125 2.28125 -35.296875 3.28125 -36.015625 C 4.84375 -37.171875 6.382812 -37.75 7.90625 -37.75 C 9.53125 -37.75 10.441406 -36.875 10.640625 -35.125 C 10.703125 -34.59375 10.734375 -34.035156 10.734375 -33.453125 L 10.734375 -4.671875 C 10.773438 -3.566406 11.175781 -2.882812 11.9375 -2.625 C 12.164062 -2.550781 12.429688 -2.484375 12.734375 -2.421875 C 13.046875 -2.367188 13.328125 -2.300781 13.578125 -2.21875 C 13.835938 -2.144531 14.039062 -2.0625 14.1875 -1.96875 C 14.425781 -1.78125 14.546875 -1.476562 14.546875 -1.0625 C 14.546875 -0.5625 14.429688 -0.171875 14.203125 0.109375 C 13.921875 0.0351562 13.46875 0 12.84375 0 Z M 6.03125 0 "/></g></g></g><g fill="#471b00" fill-opacity="1"><g transform="translate(114.884478, 317.608159)"><g><path d="M 17.390625 -2.703125 C 15.316406 -0.628906 12.804688 0.40625 9.859375 0.40625 C 7.578125 0.40625 5.753906 -0.25 4.390625 -1.5625 C 3.015625 -2.882812 2.328125 -4.597656 2.328125 -6.703125 C 2.328125 -9.316406 3.492188 -11.28125 5.828125 -12.59375 C 7.929688 -13.78125 10.894531 -14.375 14.71875 -14.375 L 17.390625 -14.375 C 17.398438 -14.914062 17.40625 -15.445312 17.40625 -15.96875 L 17.40625 -17.5625 C 17.40625 -19.46875 17.128906 -20.8125 16.578125 -21.59375 C 15.953125 -22.476562 14.882812 -22.921875 13.375 -22.921875 C 9.914062 -22.921875 8.140625 -21.679688 8.046875 -19.203125 C 8.035156 -18.816406 8.039062 -18.5 8.0625 -18.25 C 7.78125 -18.019531 7.300781 -17.90625 6.625 -17.90625 C 5.945312 -17.90625 5.453125 -17.984375 5.140625 -18.140625 C 4.835938 -18.296875 4.578125 -18.507812 4.359375 -18.78125 C 3.867188 -19.332031 3.625 -20.035156 3.625 -20.890625 C 3.625 -21.753906 3.875 -22.507812 4.375 -23.15625 C 4.882812 -23.8125 5.570312 -24.34375 6.4375 -24.75 C 8.132812 -25.59375 10.132812 -26.015625 12.4375 -26.015625 C 14.738281 -26.015625 16.46875 -25.789062 17.625 -25.34375 C 18.789062 -24.894531 19.71875 -24.300781 20.40625 -23.5625 C 21.613281 -22.25 22.21875 -20.488281 22.21875 -18.28125 L 22 -8.046875 C 22 -6.179688 22.085938 -5 22.265625 -4.5 C 22.441406 -4 22.65625 -3.664062 22.90625 -3.5 C 23.15625 -3.332031 23.460938 -3.25 23.828125 -3.25 C 24.191406 -3.25 24.488281 -3.304688 24.71875 -3.421875 L 25.3125 -3.6875 C 25.507812 -3.757812 25.679688 -3.675781 25.828125 -3.4375 C 25.984375 -3.207031 26.0625 -3.003906 26.0625 -2.828125 C 26.0625 -2.648438 25.984375 -2.414062 25.828125 -2.125 C 25.679688 -1.84375 25.40625 -1.539062 25 -1.21875 C 24.59375 -0.90625 24.132812 -0.628906 23.625 -0.390625 C 20.789062 0.953125 18.863281 0.640625 17.84375 -1.328125 C 17.625 -1.710938 17.472656 -2.171875 17.390625 -2.703125 Z M 17.328125 -5.5 C 17.328125 -7.550781 17.34375 -9.585938 17.375 -11.609375 C 14.414062 -11.492188 12.40625 -11.300781 11.34375 -11.03125 C 10.28125 -10.769531 9.515625 -10.519531 9.046875 -10.28125 C 8.578125 -10.039062 8.207031 -9.757812 7.9375 -9.4375 C 7.5 -8.894531 7.28125 -8.078125 7.28125 -6.984375 C 7.28125 -5.898438 7.660156 -5.035156 8.421875 -4.390625 C 9.191406 -3.742188 10.296875 -3.421875 11.734375 -3.421875 C 13.765625 -3.421875 15.628906 -4.113281 17.328125 -5.5 Z M 17.328125 -5.5 "/></g></g></g><g fill="#471b00" fill-opacity="1"><g transform="translate(141.495156, 317.608159)"><g><path d="M 13.78125 0.109375 C 13.5 0.0351562 13.046875 0 12.421875 0 L 5.609375 0 C 4.242188 0 3.367188 -0.238281 2.984375 -0.71875 C 2.828125 -0.90625 2.75 -1.117188 2.75 -1.359375 C 2.75 -1.960938 2.863281 -2.40625 3.09375 -2.6875 C 3.4375 -2.570312 3.820312 -2.515625 4.25 -2.515625 C 4.6875 -2.515625 5.015625 -2.691406 5.234375 -3.046875 C 5.453125 -3.398438 5.554688 -4.0625 5.546875 -5.03125 L 5.546875 -18.984375 C 5.546875 -20.328125 5.296875 -21.160156 4.796875 -21.484375 C 4.597656 -21.617188 4.335938 -21.6875 4.015625 -21.6875 C 3.679688 -21.6875 3.414062 -21.632812 3.21875 -21.53125 C 3.03125 -21.425781 2.875 -21.351562 2.75 -21.3125 C 2.632812 -21.269531 2.535156 -21.273438 2.453125 -21.328125 C 2.367188 -21.378906 2.285156 -21.453125 2.203125 -21.546875 C 1.984375 -21.773438 1.875 -22.015625 1.875 -22.265625 C 1.875 -22.515625 1.960938 -22.773438 2.140625 -23.046875 C 2.316406 -23.328125 2.601562 -23.648438 3 -24.015625 C 3.40625 -24.378906 3.863281 -24.710938 4.375 -25.015625 C 5.53125 -25.679688 6.679688 -26.015625 7.828125 -26.015625 C 9.148438 -26.015625 9.929688 -25.140625 10.171875 -23.390625 C 10.242188 -22.878906 10.289062 -22.351562 10.3125 -21.8125 C 12.425781 -23.582031 14.726562 -24.847656 17.21875 -25.609375 C 18.113281 -25.878906 19.019531 -26.015625 19.9375 -26.015625 C 20.851562 -26.015625 21.726562 -25.890625 22.5625 -25.640625 C 23.394531 -25.398438 24.117188 -25.007812 24.734375 -24.46875 C 26.023438 -23.332031 26.671875 -21.554688 26.671875 -19.140625 L 26.671875 -4.671875 C 26.710938 -3.566406 27.125 -2.882812 27.90625 -2.625 C 28.125 -2.550781 28.390625 -2.484375 28.703125 -2.421875 C 29.015625 -2.367188 29.296875 -2.300781 29.546875 -2.21875 C 29.796875 -2.144531 29.988281 -2.0625 30.125 -1.96875 C 30.375 -1.78125 30.5 -1.476562 30.5 -1.0625 C 30.5 -0.5625 30.382812 -0.171875 30.15625 0.109375 C 29.863281 0.0351562 29.40625 0 28.78125 0 L 21.984375 0 C 20.617188 0 19.742188 -0.238281 19.359375 -0.71875 C 19.203125 -0.90625 19.125 -1.117188 19.125 -1.359375 C 19.125 -1.960938 19.238281 -2.40625 19.46875 -2.6875 C 19.800781 -2.570312 20.113281 -2.515625 20.40625 -2.515625 C 20.695312 -2.515625 20.941406 -2.550781 21.140625 -2.625 C 21.347656 -2.707031 21.503906 -2.84375 21.609375 -3.03125 C 21.816406 -3.375 21.921875 -4.039062 21.921875 -5.03125 L 21.921875 -17.625 C 21.921875 -20.039062 21.203125 -21.394531 19.765625 -21.6875 C 19.316406 -21.769531 18.757812 -21.8125 18.09375 -21.8125 C 17.4375 -21.8125 16.707031 -21.710938 15.90625 -21.515625 C 15.113281 -21.316406 14.367188 -21.054688 13.671875 -20.734375 C 12.335938 -20.140625 11.21875 -19.390625 10.3125 -18.484375 L 10.3125 -4.671875 C 10.351562 -3.566406 10.753906 -2.882812 11.515625 -2.625 C 11.742188 -2.550781 12.007812 -2.484375 12.3125 -2.421875 C 12.625 -2.367188 12.90625 -2.300781 13.15625 -2.21875 C 13.414062 -2.144531 13.617188 -2.0625 13.765625 -1.96875 C 14.003906 -1.78125 14.125 -1.476562 14.125 -1.0625 C 14.125 -0.5625 14.007812 -0.171875 13.78125 0.109375 Z M 13.78125 0.109375 "/></g></g></g><g fill="#471b00" fill-opacity="1"><g transform="translate(172.90728, 317.608159)"><g><path d="M 9.640625 -14.546875 L 9.625 -8.9375 C 9.625 -6.59375 9.742188 -5.179688 9.984375 -4.703125 C 10.222656 -4.222656 10.503906 -3.9375 10.828125 -3.84375 C 11.160156 -3.757812 11.582031 -3.71875 12.09375 -3.71875 C 12.613281 -3.71875 13.082031 -3.753906 13.5 -3.828125 C 13.914062 -3.910156 14.304688 -4.015625 14.671875 -4.140625 C 15.046875 -4.265625 15.40625 -4.40625 15.75 -4.5625 L 16.796875 -5.015625 C 17.035156 -5.097656 17.304688 -4.847656 17.609375 -4.265625 C 17.691406 -4.109375 17.734375 -3.925781 17.734375 -3.71875 C 17.734375 -3.519531 17.644531 -3.253906 17.46875 -2.921875 C 17.300781 -2.597656 16.972656 -2.222656 16.484375 -1.796875 C 15.992188 -1.378906 15.421875 -1.007812 14.765625 -0.6875 C 13.347656 0.0390625 12.070312 0.40625 10.9375 0.40625 C 9.800781 0.40625 8.878906 0.335938 8.171875 0.203125 C 7.460938 0.078125 6.859375 -0.175781 6.359375 -0.5625 C 5.335938 -1.351562 4.828125 -2.804688 4.828125 -4.921875 L 4.828125 -21.71875 L 2.703125 -21.71875 C 2.265625 -21.71875 1.945312 -21.863281 1.75 -22.15625 C 1.40625 -22.59375 1.234375 -22.960938 1.234375 -23.265625 C 1.234375 -23.753906 1.351562 -24.03125 1.59375 -24.09375 C 3.863281 -24.476562 5.46875 -26.15625 6.40625 -29.125 C 6.675781 -30.019531 6.890625 -31.082031 7.046875 -32.3125 C 7.722656 -32.425781 8.234375 -32.484375 8.578125 -32.484375 C 8.929688 -32.484375 9.234375 -32.300781 9.484375 -31.9375 C 9.742188 -31.582031 9.867188 -31.171875 9.859375 -30.703125 C 9.859375 -30.234375 9.847656 -29.789062 9.828125 -29.375 C 9.816406 -28.96875 9.804688 -28.523438 9.796875 -28.046875 L 9.703125 -25.046875 L 17.09375 -25.046875 C 17.28125 -24.722656 17.375 -24.375 17.375 -24 L 17.375 -23.34375 C 17.375 -22.75 17.050781 -22.257812 16.40625 -21.875 C 15.769531 -21.5 15.0625 -21.3125 14.28125 -21.3125 C 13.507812 -21.3125 12.957031 -21.320312 12.625 -21.34375 C 12.289062 -21.363281 11.96875 -21.390625 11.65625 -21.421875 L 10.71875 -21.546875 C 10.382812 -21.578125 10.035156 -21.609375 9.671875 -21.640625 L 9.671875 -21.40625 Z M 9.640625 -14.546875 "/></g></g></g><g fill="#471b00" fill-opacity="1"><g transform="translate(191.835646, 317.608159)"><g/></g></g><g fill="#471b00" fill-opacity="1"><g transform="translate(207.200271, 317.608159)"><g><path d="M 24.28125 -23.46875 C 24.34375 -23.875 24.375 -24.457031 24.375 -25.21875 C 24.375 -25.988281 24.222656 -26.691406 23.921875 -27.328125 C 23.617188 -27.960938 23.210938 -28.457031 22.703125 -28.8125 C 21.804688 -29.414062 20.457031 -29.71875 18.65625 -29.71875 C 16.863281 -29.71875 15.28125 -29.394531 13.90625 -28.75 C 12.53125 -28.101562 11.378906 -27.195312 10.453125 -26.03125 C 8.585938 -23.6875 7.65625 -20.492188 7.65625 -16.453125 C 7.65625 -12.628906 8.601562 -9.578125 10.5 -7.296875 C 12.457031 -4.921875 15.109375 -3.734375 18.453125 -3.734375 C 21.742188 -3.734375 24.304688 -4.453125 26.140625 -5.890625 C 26.691406 -6.316406 27.195312 -6.78125 27.65625 -7.28125 C 28.082031 -7.144531 28.429688 -6.765625 28.703125 -6.140625 C 28.785156 -5.929688 28.828125 -5.648438 28.828125 -5.296875 C 28.828125 -4.953125 28.570312 -4.441406 28.0625 -3.765625 C 27.5625 -3.085938 26.828125 -2.4375 25.859375 -1.8125 C 23.554688 -0.300781 20.796875 0.453125 17.578125 0.453125 C 12.972656 0.453125 9.304688 -0.945312 6.578125 -3.75 C 3.867188 -6.5 2.515625 -10.175781 2.515625 -14.78125 C 2.515625 -17.601562 2.960938 -20.144531 3.859375 -22.40625 C 4.753906 -24.664062 5.976562 -26.585938 7.53125 -28.171875 C 9.082031 -29.765625 10.890625 -30.988281 12.953125 -31.84375 C 15.023438 -32.695312 17.039062 -33.125 19 -33.125 C 20.957031 -33.125 22.523438 -32.957031 23.703125 -32.625 C 24.890625 -32.300781 25.875 -31.851562 26.65625 -31.28125 C 28.21875 -30.113281 29 -28.5625 29 -26.625 C 29 -25.144531 28.453125 -24.101562 27.359375 -23.5 C 26.984375 -23.28125 26.582031 -23.171875 26.15625 -23.171875 C 25.28125 -23.171875 24.65625 -23.269531 24.28125 -23.46875 Z M 24.28125 -23.46875 "/></g></g></g><g fill="#471b00" fill-opacity="1"><g transform="translate(238.292299, 317.608159)"><g><path d="M 17.390625 -2.703125 C 15.316406 -0.628906 12.804688 0.40625 9.859375 0.40625 C 7.578125 0.40625 5.753906 -0.25 4.390625 -1.5625 C 3.015625 -2.882812 2.328125 -4.597656 2.328125 -6.703125 C 2.328125 -9.316406 3.492188 -11.28125 5.828125 -12.59375 C 7.929688 -13.78125 10.894531 -14.375 14.71875 -14.375 L 17.390625 -14.375 C 17.398438 -14.914062 17.40625 -15.445312 17.40625 -15.96875 L 17.40625 -17.5625 C 17.40625 -19.46875 17.128906 -20.8125 16.578125 -21.59375 C 15.953125 -22.476562 14.882812 -22.921875 13.375 -22.921875 C 9.914062 -22.921875 8.140625 -21.679688 8.046875 -19.203125 C 8.035156 -18.816406 8.039062 -18.5 8.0625 -18.25 C 7.78125 -18.019531 7.300781 -17.90625 6.625 -17.90625 C 5.945312 -17.90625 5.453125 -17.984375 5.140625 -18.140625 C 4.835938 -18.296875 4.578125 -18.507812 4.359375 -18.78125 C 3.867188 -19.332031 3.625 -20.035156 3.625 -20.890625 C 3.625 -21.753906 3.875 -22.507812 4.375 -23.15625 C 4.882812 -23.8125 5.570312 -24.34375 6.4375 -24.75 C 8.132812 -25.59375 10.132812 -26.015625 12.4375 -26.015625 C 14.738281 -26.015625 16.46875 -25.789062 17.625 -25.34375 C 18.789062 -24.894531 19.71875 -24.300781 20.40625 -23.5625 C 21.613281 -22.25 22.21875 -20.488281 22.21875 -18.28125 L 22 -8.046875 C 22 -6.179688 22.085938 -5 22.265625 -4.5 C 22.441406 -4 22.65625 -3.664062 22.90625 -3.5 C 23.15625 -3.332031 23.460938 -3.25 23.828125 -3.25 C 24.191406 -3.25 24.488281 -3.304688 24.71875 -3.421875 L 25.3125 -3.6875 C 25.507812 -3.757812 25.679688 -3.675781 25.828125 -3.4375 C 25.984375 -3.207031 26.0625 -3.003906 26.0625 -2.828125 C 26.0625 -2.648438 25.984375 -2.414062 25.828125 -2.125 C 25.679688 -1.84375 25.40625 -1.539062 25 -1.21875 C 24.59375 -0.90625 24.132812 -0.628906 23.625 -0.390625 C 20.789062 0.953125 18.863281 0.640625 17.84375 -1.328125 C 17.625 -1.710938 17.472656 -2.171875 17.390625 -2.703125 Z M 17.328125 -5.5 C 17.328125 -7.550781 17.34375 -9.585938 17.375 -11.609375 C 14.414062 -11.492188 12.40625 -11.300781 11.34375 -11.03125 C 10.28125 -10.769531 9.515625 -10.519531 9.046875 -10.28125 C 8.578125 -10.039062 8.207031 -9.757812 7.9375 -9.4375 C 7.5 -8.894531 7.28125 -8.078125 7.28125 -6.984375 C 7.28125 -5.898438 7.660156 -5.035156 8.421875 -4.390625 C 9.191406 -3.742188 10.296875 -3.421875 11.734375 -3.421875 C 13.765625 -3.421875 15.628906 -4.113281 17.328125 -5.5 Z M 17.328125 -5.5 "/></g></g></g><g fill="#471b00" fill-opacity="1"><g transform="translate(264.902977, 317.608159)"><g><path d="M 14.109375 0.109375 C 13.804688 0.0351562 13.347656 0 12.734375 0 L 5.5 0 C 4.132812 0 3.257812 -0.238281 2.875 -0.71875 C 2.71875 -0.90625 2.640625 -1.117188 2.640625 -1.359375 C 2.640625 -1.960938 2.753906 -2.40625 2.984375 -2.6875 C 3.328125 -2.570312 3.644531 -2.515625 3.9375 -2.515625 C 4.226562 -2.515625 4.472656 -2.550781 4.671875 -2.625 C 4.867188 -2.707031 5.023438 -2.84375 5.140625 -3.03125 C 5.335938 -3.375 5.4375 -4.039062 5.4375 -5.03125 L 5.4375 -18.984375 C 5.4375 -20.328125 5.1875 -21.160156 4.6875 -21.484375 C 4.488281 -21.617188 4.226562 -21.6875 3.90625 -21.6875 C 3.582031 -21.6875 3.320312 -21.632812 3.125 -21.53125 C 2.9375 -21.425781 2.78125 -21.351562 2.65625 -21.3125 C 2.53125 -21.269531 2.425781 -21.273438 2.34375 -21.328125 C 2.257812 -21.378906 2.175781 -21.453125 2.09375 -21.546875 C 1.875 -21.804688 1.765625 -22.050781 1.765625 -22.28125 C 1.765625 -22.519531 1.851562 -22.773438 2.03125 -23.046875 C 2.207031 -23.328125 2.492188 -23.648438 2.890625 -24.015625 C 3.296875 -24.378906 3.753906 -24.710938 4.265625 -25.015625 C 5.421875 -25.679688 6.570312 -26.015625 7.71875 -26.015625 C 9.03125 -26.015625 9.804688 -25.160156 10.046875 -23.453125 C 10.117188 -22.953125 10.160156 -22.429688 10.171875 -21.890625 C 12.253906 -23.722656 14.398438 -24.984375 16.609375 -25.671875 C 17.347656 -25.898438 18.019531 -26.015625 18.625 -26.015625 C 19.226562 -26.015625 19.722656 -25.925781 20.109375 -25.75 C 20.503906 -25.582031 20.816406 -25.347656 21.046875 -25.046875 C 21.472656 -24.460938 21.6875 -23.71875 21.6875 -22.8125 C 21.6875 -21.90625 21.640625 -21.179688 21.546875 -20.640625 C 21.460938 -20.097656 21.359375 -19.617188 21.234375 -19.203125 C 20.972656 -18.367188 20.726562 -17.835938 20.5 -17.609375 C 20.101562 -17.191406 19.570312 -16.984375 18.90625 -16.984375 C 18.21875 -16.984375 17.875 -17.179688 17.875 -17.578125 C 17.875 -19.097656 17.8125 -20.070312 17.6875 -20.5 C 17.445312 -21.289062 16.992188 -21.6875 16.328125 -21.6875 C 15.660156 -21.6875 15.054688 -21.609375 14.515625 -21.453125 C 13.972656 -21.304688 13.445312 -21.101562 12.9375 -20.84375 C 11.894531 -20.332031 10.984375 -19.671875 10.203125 -18.859375 L 10.203125 -4.671875 C 10.242188 -3.546875 10.734375 -2.863281 11.671875 -2.625 C 11.941406 -2.550781 12.25 -2.484375 12.59375 -2.421875 C 12.9375 -2.367188 13.226562 -2.300781 13.46875 -2.21875 C 13.71875 -2.144531 13.914062 -2.0625 14.0625 -1.96875 C 14.300781 -1.78125 14.421875 -1.476562 14.421875 -1.0625 C 14.421875 -0.550781 14.316406 -0.160156 14.109375 0.109375 Z M 14.109375 0.109375 "/></g></g></g><g fill="#471b00" fill-opacity="1"><g transform="translate(287.352402, 317.608159)"><g><path d="M 2.296875 -11.484375 C 2.296875 -13.203125 2.472656 -14.726562 2.828125 -16.0625 C 3.191406 -17.40625 3.675781 -18.601562 4.28125 -19.65625 C 4.882812 -20.71875 5.59375 -21.644531 6.40625 -22.4375 C 7.226562 -23.238281 8.109375 -23.90625 9.046875 -24.4375 C 10.898438 -25.488281 12.722656 -26.015625 14.515625 -26.015625 C 16.304688 -26.015625 17.738281 -25.695312 18.8125 -25.0625 C 19.894531 -24.425781 20.78125 -23.582031 21.46875 -22.53125 C 22.726562 -20.53125 23.359375 -17.863281 23.359375 -14.53125 C 23.359375 -13.289062 22.84375 -12.660156 21.8125 -12.640625 L 6.90625 -12.3125 C 7 -9.226562 7.796875 -6.945312 9.296875 -5.46875 C 10.578125 -4.207031 12.238281 -3.578125 14.28125 -3.578125 C 17.3125 -3.578125 19.769531 -4.210938 21.65625 -5.484375 C 21.789062 -5.484375 21.945312 -5.378906 22.125 -5.171875 C 22.476562 -4.742188 22.65625 -4.367188 22.65625 -4.046875 C 22.65625 -3.367188 21.804688 -2.5 20.109375 -1.4375 C 18.140625 -0.207031 15.847656 0.40625 13.234375 0.40625 C 9.816406 0.40625 7.132812 -0.679688 5.1875 -2.859375 C 3.257812 -4.992188 2.296875 -7.867188 2.296875 -11.484375 Z M 7.046875 -15.0625 C 11.140625 -15.257812 14.882812 -15.523438 18.28125 -15.859375 C 18.4375 -20.378906 16.875 -22.640625 13.59375 -22.640625 C 11.757812 -22.640625 10.257812 -21.925781 9.09375 -20.5 C 8.019531 -19.195312 7.335938 -17.382812 7.046875 -15.0625 Z M 7.046875 -15.0625 "/></g></g></g><path fill="#bfe063" d="M 272.449219 211.179688 C 266.742188 210.742188 262.292969 210.363281 260.363281 210.109375 C 251.863281 208.996094 229.089844 198.078125 197.566406 221.105469 C 192.941406 224.488281 189.597656 227.421875 175.546875 227.464844 C 167.660156 227.484375 145.160156 220.144531 143.992188 227.464844 C 143.992188 227.464844 121.871094 211.039062 106.367188 214.011719 C 104.835938 214.304688 104.164062 215.003906 103.339844 216.15625 C 102.535156 217.292969 101.570312 220.097656 105.328125 221.660156 C 121.910156 228.53125 156.691406 251.113281 167.371094 257.183594 C 167.371094 257.183594 185.769531 267.738281 191.199219 265.347656 C 196.832031 262.859375 244.773438 248.507812 266.785156 248.347656 L 272.449219 248.832031 L 272.449219 211.179688 " fill-opacity="1" fill-rule="nonzero"/><g clip-path="url(#cd7f328a11)"><path fill="#000000" d="M 272.449219 211.179688 L 272.550781 209.828125 C 269.703125 209.609375 267.167969 209.40625 265.109375 209.226562 C 263.050781 209.046875 261.464844 208.886719 260.546875 208.765625 L 260.539062 208.765625 C 259.582031 208.640625 258.328125 208.359375 256.84375 208 C 252.378906 206.929688 245.839844 205.199219 237.652344 205.199219 C 232.175781 205.199219 225.945312 205.972656 219.09375 208.214844 C 212.238281 210.460938 204.761719 214.167969 196.765625 220.011719 C 195.597656 220.867188 194.546875 221.664062 193.421875 222.375 C 191.738281 223.441406 189.898438 224.339844 187.148438 225.007812 C 184.402344 225.675781 180.742188 226.097656 175.542969 226.109375 L 175.546875 226.109375 L 175.546875 226.121094 L 175.546875 226.109375 L 175.546875 226.121094 L 175.546875 226.109375 L 175.515625 226.109375 C 174.332031 226.113281 172.648438 225.921875 170.722656 225.621094 C 167.820312 225.167969 164.34375 224.484375 160.867188 223.90625 C 157.382812 223.332031 153.90625 222.863281 150.921875 222.859375 C 148.929688 222.867188 147.152344 223.058594 145.65625 223.679688 C 144.914062 223.988281 144.230469 224.421875 143.691406 225.03125 C 143.152344 225.632812 142.785156 226.410156 142.65625 227.253906 L 143.992188 227.464844 L 144.800781 226.378906 C 144.765625 226.351562 140.070312 222.863281 133.445312 219.363281 C 130.132812 217.609375 126.335938 215.855469 122.382812 214.527344 C 118.429688 213.203125 114.316406 212.300781 110.347656 212.296875 C 108.910156 212.296875 107.492188 212.417969 106.109375 212.683594 L 106.117188 212.679688 C 105.195312 212.851562 104.398438 213.191406 103.761719 213.683594 C 103.125 214.175781 102.671875 214.761719 102.234375 215.371094 L 102.230469 215.371094 C 101.988281 215.71875 101.753906 216.144531 101.566406 216.648438 C 101.378906 217.148438 101.246094 217.734375 101.246094 218.378906 C 101.242188 219.191406 101.484375 220.113281 102.082031 220.921875 C 102.679688 221.734375 103.585938 222.40625 104.808594 222.910156 C 108.871094 224.59375 114.125 227.277344 119.859375 230.441406 C 128.464844 235.191406 138.167969 241.027344 146.710938 246.246094 C 150.984375 248.855469 154.972656 251.308594 158.394531 253.398438 C 161.816406 255.488281 164.667969 257.207031 166.699219 258.363281 L 166.695312 258.359375 C 166.71875 258.371094 170.453125 260.515625 175.09375 262.671875 C 177.414062 263.75 179.957031 264.832031 182.398438 265.652344 C 183.621094 266.066406 184.816406 266.410156 185.949219 266.660156 C 187.085938 266.90625 188.164062 267.054688 189.171875 267.054688 C 190.085938 267.054688 190.949219 266.9375 191.746094 266.589844 L 191.746094 266.585938 C 192.046875 266.453125 192.546875 266.257812 193.195312 266.023438 C 195.640625 265.136719 200.21875 263.667969 205.996094 261.976562 C 214.667969 259.441406 226.066406 256.394531 237.207031 253.972656 C 242.777344 252.761719 248.28125 251.707031 253.34375 250.949219 C 258.402344 250.1875 263.023438 249.730469 266.792969 249.703125 L 266.785156 248.347656 L 266.667969 249.699219 L 272.332031 250.183594 C 272.710938 250.214844 273.085938 250.085938 273.367188 249.832031 C 273.644531 249.574219 273.804688 249.210938 273.804688 248.832031 L 273.804688 211.179688 C 273.804688 210.472656 273.257812 209.878906 272.550781 209.828125 L 272.449219 211.179688 L 271.09375 211.179688 L 271.09375 247.355469 L 266.898438 247 L 266.773438 246.992188 C 261.132812 247.035156 253.960938 247.976562 246.238281 249.390625 C 234.65625 251.511719 221.867188 254.707031 211.425781 257.609375 C 206.203125 259.0625 201.570312 260.441406 197.972656 261.578125 C 196.171875 262.144531 194.632812 262.652344 193.398438 263.078125 C 192.164062 263.503906 191.25 263.84375 190.648438 264.109375 L 190.652344 264.109375 C 190.34375 264.246094 189.835938 264.347656 189.171875 264.34375 C 188.441406 264.347656 187.53125 264.230469 186.527344 264.011719 C 184.761719 263.628906 182.703125 262.9375 180.625 262.113281 C 177.507812 260.878906 174.351562 259.347656 171.984375 258.128906 C 170.796875 257.519531 169.8125 256.988281 169.121094 256.609375 C 168.773438 256.417969 168.503906 256.269531 168.320312 256.164062 C 168.230469 256.113281 168.160156 256.074219 168.113281 256.046875 L 168.042969 256.007812 L 168.039062 256.007812 C 165.402344 254.507812 161.226562 251.960938 156.210938 248.886719 C 148.679688 244.265625 139.234375 238.457031 130.109375 233.148438 C 120.976562 227.839844 112.1875 223.035156 105.84375 220.410156 L 105.847656 220.410156 C 104.960938 220.039062 104.507812 219.640625 104.265625 219.316406 C 104.03125 218.984375 103.960938 218.707031 103.957031 218.378906 C 103.957031 218.121094 104.011719 217.84375 104.109375 217.585938 C 104.203125 217.328125 104.335938 217.09375 104.445312 216.9375 L 104.441406 216.941406 C 104.828125 216.398438 105.125 216.054688 105.414062 215.835938 C 105.703125 215.617188 106.007812 215.464844 106.621094 215.34375 L 106.625 215.34375 C 107.8125 215.113281 109.0625 215.007812 110.347656 215.007812 C 113.898438 215.007812 117.753906 215.832031 121.519531 217.097656 C 127.171875 218.988281 132.609375 221.863281 136.617188 224.257812 C 138.625 225.457031 140.273438 226.535156 141.417969 227.3125 C 141.988281 227.699219 142.433594 228.015625 142.734375 228.226562 C 142.886719 228.335938 143 228.417969 143.074219 228.472656 L 143.160156 228.535156 L 143.183594 228.554688 C 143.566406 228.835938 144.066406 228.898438 144.507812 228.722656 C 144.945312 228.542969 145.257812 228.148438 145.332031 227.679688 C 145.394531 227.304688 145.515625 227.0625 145.722656 226.828125 C 145.875 226.65625 146.089844 226.484375 146.382812 226.328125 C 146.828125 226.09375 147.453125 225.894531 148.226562 225.761719 C 148.996094 225.632812 149.914062 225.570312 150.921875 225.570312 C 152.722656 225.570312 154.828125 225.765625 157.039062 226.066406 C 160.363281 226.515625 163.929688 227.199219 167.179688 227.773438 C 168.804688 228.058594 170.347656 228.320312 171.753906 228.507812 C 173.160156 228.699219 174.421875 228.820312 175.515625 228.820312 L 175.515625 228.804688 L 175.515625 228.820312 L 175.515625 228.804688 L 175.515625 228.820312 L 175.550781 228.820312 C 182.667969 228.800781 187.179688 228.046875 190.558594 226.808594 C 192.242188 226.195312 193.632812 225.453125 194.875 224.664062 C 196.125 223.871094 197.222656 223.035156 198.367188 222.199219 C 206.15625 216.511719 213.371094 212.941406 219.9375 210.792969 C 226.503906 208.644531 232.429688 207.910156 237.652344 207.910156 C 242.863281 207.910156 247.375 208.640625 251.132812 209.449219 C 253.015625 209.851562 254.707031 210.273438 256.210938 210.636719 C 257.714844 210.996094 259.027344 211.296875 260.1875 211.449219 C 261.195312 211.585938 262.796875 211.742188 264.875 211.925781 C 266.945312 212.109375 269.488281 212.3125 272.347656 212.527344 L 272.449219 211.179688 L 271.09375 211.179688 L 272.449219 211.179688 " fill-opacity="1" fill-rule="nonzero"/></g><path fill="#bfe063" d="M 215.488281 236.320312 L 199.828125 243.980469 C 199.828125 243.980469 136.535156 248.289062 143.992188 227.464844 " fill-opacity="1" fill-rule="nonzero"/><path fill="#000000" d="M 214.890625 235.105469 L 199.234375 242.761719 L 199.828125 243.980469 L 199.738281 242.628906 C 199.738281 242.628906 199.65625 242.632812 199.5 242.640625 C 198.378906 242.710938 193.433594 242.992188 186.925781 242.992188 C 178.648438 242.996094 167.824219 242.53125 159.199219 240.636719 C 154.886719 239.691406 151.136719 238.378906 148.589844 236.691406 C 147.3125 235.851562 146.34375 234.929688 145.707031 233.949219 C 145.070312 232.964844 144.742188 231.929688 144.738281 230.710938 C 144.738281 229.882812 144.898438 228.957031 145.269531 227.921875 C 145.523438 227.21875 145.15625 226.441406 144.453125 226.191406 C 143.746094 225.9375 142.972656 226.304688 142.71875 227.007812 C 142.257812 228.289062 142.027344 229.527344 142.027344 230.710938 C 142.023438 232.445312 142.535156 234.050781 143.433594 235.429688 C 144.21875 236.632812 145.285156 237.671875 146.546875 238.574219 C 148.753906 240.15625 151.566406 241.347656 154.753906 242.296875 C 159.53125 243.710938 165.160156 244.550781 170.808594 245.050781 C 176.453125 245.550781 182.113281 245.703125 186.925781 245.703125 C 194.453125 245.703125 199.902344 245.332031 199.921875 245.332031 C 200.089844 245.320312 200.273438 245.273438 200.425781 245.199219 L 216.082031 237.539062 C 216.753906 237.207031 217.035156 236.398438 216.703125 235.722656 C 216.375 235.054688 215.5625 234.777344 214.890625 235.105469 " fill-opacity="1" fill-rule="nonzero"/></svg>